<svg width="100" height="100" viewBox="0 0 100 100" fill="none" xmlns="http://www.w3.org/2000/svg">
<circle cx="50" cy="50" r="50" fill="#2196F3"/>
<path d="M57.0613 99.4989C67.7685 97.9714 77.6918 93.0133 85.3425 85.3682C92.9931 77.7232 97.9585 67.8035 99.4937 57.0973L50 50L57.0613 99.4989Z" fill="#0D47A1"/>
<rect x="28.78" y="71.2064" width="60" height="40.0175" transform="rotate(-45 28.78 71.2064)" fill="#0D47A1"/>
<path d="M71.2132 28.7868C67.0176 24.5912 61.6721 21.734 55.8527 20.5764C50.0333 19.4189 44.0013 20.013 38.5195 22.2836C33.0377 24.5542 28.3524 28.3994 25.0559 33.3329C21.7595 38.2664 20 44.0666 20 50C20 55.9334 21.7595 61.7336 25.0559 66.6671C28.3523 71.6006 33.0377 75.4458 38.5195 77.7164C44.0013 79.987 50.0333 80.5811 55.8527 79.4236C61.6721 78.266 67.0176 75.4088 71.2132 71.2132L50 50L71.2132 28.7868Z" fill="white"/>
</svg>
